<svg xmlns="http://www.w3.org/2000/svg" width="760" height="480" viewBox="0 0 760 480" font-family="'Segoe UI', 'Helvetica Neue', Arial, system-ui, sans-serif">
  <defs>
    <linearGradient id="bg" x1="0" y1="0" x2="0" y2="1">
      <stop offset="0%" stop-color="#0b0e16"/>
      <stop offset="100%" stop-color="#05070d"/>
    </linearGradient>
    <radialGradient id="glow" cx="50%" cy="50%" r="50%">
      <stop offset="0%" stop-color="#fff1ea" stop-opacity="1"/>
      <stop offset="28%" stop-color="#fff1ea" stop-opacity="0.85"/>
      <stop offset="60%" stop-color="#fff1ea" stop-opacity="0.25"/>
      <stop offset="100%" stop-color="#fff1ea" stop-opacity="0"/>
    </radialGradient>
    <radialGradient id="spike" cx="50%" cy="50%" r="50%">
      <stop offset="0%" stop-color="#fff1ea" stop-opacity="0.9"/>
      <stop offset="100%" stop-color="#fff1ea" stop-opacity="0"/>
    </radialGradient>
    <linearGradient id="spectrum" x1="0" y1="0" x2="1" y2="0">
      <stop offset="0.00%" stop-color="rgb(60,64,78)"/><stop offset="1.15%" stop-color="rgb(60,64,78)"/><stop offset="2.30%" stop-color="rgb(60,64,78)"/><stop offset="3.45%" stop-color="rgb(60,64,78)"/><stop offset="4.60%" stop-color="rgb(60,64,78)"/><stop offset="5.75%" stop-color="rgb(60,64,78)"/><stop offset="6.90%" stop-color="rgb(60,64,78)"/><stop offset="8.05%" stop-color="rgb(60,64,78)"/><stop offset="9.20%" stop-color="rgb(0,112,255)"/><stop offset="10.34%" stop-color="rgb(0,96,255)"/><stop offset="11.49%" stop-color="rgb(0,78,255)"/><stop offset="12.64%" stop-color="rgb(0,38,255)"/><stop offset="13.79%" stop-color="rgb(0,0,255)"/><stop offset="14.94%" stop-color="rgb(123,0,255)"/><stop offset="16.09%" stop-color="rgb(134,0,255)"/><stop offset="17.24%" stop-color="rgb(114,0,255)"/><stop offset="18.39%" stop-color="rgb(98,0,255)"/><stop offset="19.54%" stop-color="rgb(103,0,255)"/><stop offset="20.69%" stop-color="rgb(100,0,255)"/><stop offset="21.84%" stop-color="rgb(74,0,255)"/><stop offset="22.99%" stop-color="rgb(0,0,255)"/><stop offset="24.14%" stop-color="rgb(0,33,255)"/><stop offset="25.29%" stop-color="rgb(0,108,255)"/><stop offset="26.44%" stop-color="rgb(0,182,255)"/><stop offset="27.59%" stop-color="rgb(0,255,232)"/><stop offset="28.74%" stop-color="rgb(0,255,150)"/><stop offset="29.89%" stop-color="rgb(0,255,81)"/><stop offset="31.03%" stop-color="rgb(0,255,0)"/><stop offset="32.18%" stop-color="rgb(0,255,0)"/><stop offset="33.33%" stop-color="rgb(0,255,0)"/><stop offset="34.48%" stop-color="rgb(0,255,0)"/><stop offset="35.63%" stop-color="rgb(0,255,0)"/><stop offset="36.78%" stop-color="rgb(127,255,0)"/><stop offset="37.93%" stop-color="rgb(213,255,0)"/><stop offset="39.08%" stop-color="rgb(255,223,0)"/><stop offset="40.23%" stop-color="rgb(255,170,0)"/><stop offset="41.38%" stop-color="rgb(255,127,0)"/><stop offset="42.53%" stop-color="rgb(255,86,0)"/><stop offset="43.68%" stop-color="rgb(255,34,0)"/><stop offset="44.83%" stop-color="rgb(255,0,0)"/><stop offset="45.98%" stop-color="rgb(255,0,0)"/><stop offset="47.13%" stop-color="rgb(255,0,0)"/><stop offset="48.28%" stop-color="rgb(255,0,0)"/><stop offset="49.43%" stop-color="rgb(255,0,0)"/><stop offset="50.57%" stop-color="rgb(255,0,0)"/><stop offset="51.72%" stop-color="rgb(255,0,0)"/><stop offset="52.87%" stop-color="rgb(255,0,0)"/><stop offset="54.02%" stop-color="rgb(255,0,0)"/><stop offset="55.17%" stop-color="rgb(255,58,0)"/><stop offset="56.32%" stop-color="rgb(255,101,0)"/><stop offset="57.47%" stop-color="rgb(255,144,0)"/><stop offset="58.62%" stop-color="rgb(255,196,0)"/><stop offset="59.77%" stop-color="rgb(238,255,0)"/><stop offset="60.92%" stop-color="rgb(144,255,0)"/><stop offset="62.07%" stop-color="rgb(0,255,0)"/><stop offset="63.22%" stop-color="rgb(0,255,0)"/><stop offset="64.37%" stop-color="rgb(0,255,0)"/><stop offset="65.52%" stop-color="rgb(0,255,0)"/><stop offset="66.67%" stop-color="rgb(0,255,0)"/><stop offset="67.82%" stop-color="rgb(0,255,0)"/><stop offset="68.97%" stop-color="rgb(0,255,0)"/><stop offset="70.11%" stop-color="rgb(0,255,0)"/><stop offset="71.26%" stop-color="rgb(0,255,0)"/><stop offset="72.41%" stop-color="rgb(0,255,0)"/><stop offset="73.56%" stop-color="rgb(0,255,0)"/><stop offset="74.71%" stop-color="rgb(0,255,0)"/><stop offset="75.86%" stop-color="rgb(60,64,78)"/><stop offset="77.01%" stop-color="rgb(60,64,78)"/><stop offset="78.16%" stop-color="rgb(60,64,78)"/><stop offset="79.31%" stop-color="rgb(60,64,78)"/><stop offset="80.46%" stop-color="rgb(60,64,78)"/><stop offset="81.61%" stop-color="rgb(60,64,78)"/><stop offset="82.76%" stop-color="rgb(60,64,78)"/><stop offset="83.91%" stop-color="rgb(60,64,78)"/><stop offset="85.06%" stop-color="rgb(60,64,78)"/><stop offset="86.21%" stop-color="rgb(60,64,78)"/><stop offset="87.36%" stop-color="rgb(60,64,78)"/><stop offset="88.51%" stop-color="rgb(60,64,78)"/><stop offset="89.66%" stop-color="rgb(60,64,78)"/><stop offset="90.80%" stop-color="rgb(60,64,78)"/><stop offset="91.95%" stop-color="rgb(60,64,78)"/><stop offset="93.10%" stop-color="rgb(60,64,78)"/><stop offset="94.25%" stop-color="rgb(60,64,78)"/><stop offset="95.40%" stop-color="rgb(60,64,78)"/><stop offset="96.55%" stop-color="rgb(60,64,78)"/><stop offset="97.70%" stop-color="rgb(60,64,78)"/><stop offset="98.85%" stop-color="rgb(60,64,78)"/><stop offset="100.00%" stop-color="rgb(60,64,78)"/>
    </linearGradient>
  </defs>

  <rect width="760" height="480" fill="url(#bg)"/>

  <!-- glowing star -->
  <circle cx="130.0" cy="130.0" r="110" fill="url(#glow)"/>
  <rect x="-40.0" y="128.9" width="340.0" height="2.2" fill="url(#spike)" opacity="0.55"/><rect x="128.9" y="-40.0" width="2.2" height="340.0" fill="url(#spike)" opacity="0.55"/>
  <circle cx="130.0" cy="130.0" r="40.0" fill="#fff1ea"/>
  <circle cx="119.0" cy="119.0" r="16.8" fill="#ffffff" opacity="0.30"/>

  <!-- headline -->
  <text x="250.0" y="78" fill="#e8ecf4" font-size="48" font-weight="700">5772 K</text>
  <text x="250.0" y="108" fill="#8b93a7" font-size="16">class G — yellow, Sun-like</text>
  <text x="250.0" y="150" fill="#e8ecf4" font-size="15" font-family="'SF Mono', 'JetBrains Mono', 'Menlo', monospace">#fff1ea   rgb(255, 241, 234)</text>
  <text x="250.0" y="174" fill="#8b93a7" font-size="14">neutral white  ·  CIE xy (0.3263, 0.3361)</text>
  <text x="250.0" y="198" fill="#8b93a7" font-size="14">peak λ 502.0 nm  ·  exitance 62.94 MW/m²</text>

  <!-- spectrum plot -->
  <rect x="116.6" y="250.0" width="443.1" height="174.0" fill="#ffffff" opacity="0.03"/>
  <line x1="60.0" y1="424.0" x2="720.0" y2="424.0" stroke="#222838"/>
  <line x1="60.0" y1="250.0" x2="60.0" y2="424.0" stroke="#222838"/>
  <line x1="60.0" y1="424.0" x2="60.0" y2="429.0" stroke="#8b93a7"/><text x="60.0" y="442.0" fill="#8b93a7" font-size="11" font-family="'SF Mono', 'JetBrains Mono', 'Menlo', monospace" text-anchor="middle">300</text><line x1="154.3" y1="424.0" x2="154.3" y2="429.0" stroke="#8b93a7"/><text x="154.3" y="442.0" fill="#8b93a7" font-size="11" font-family="'SF Mono', 'JetBrains Mono', 'Menlo', monospace" text-anchor="middle">400</text><line x1="248.6" y1="424.0" x2="248.6" y2="429.0" stroke="#8b93a7"/><text x="248.6" y="442.0" fill="#8b93a7" font-size="11" font-family="'SF Mono', 'JetBrains Mono', 'Menlo', monospace" text-anchor="middle">500</text><line x1="342.9" y1="424.0" x2="342.9" y2="429.0" stroke="#8b93a7"/><text x="342.9" y="442.0" fill="#8b93a7" font-size="11" font-family="'SF Mono', 'JetBrains Mono', 'Menlo', monospace" text-anchor="middle">600</text><line x1="437.1" y1="424.0" x2="437.1" y2="429.0" stroke="#8b93a7"/><text x="437.1" y="442.0" fill="#8b93a7" font-size="11" font-family="'SF Mono', 'JetBrains Mono', 'Menlo', monospace" text-anchor="middle">700</text><line x1="531.4" y1="424.0" x2="531.4" y2="429.0" stroke="#8b93a7"/><text x="531.4" y="442.0" fill="#8b93a7" font-size="11" font-family="'SF Mono', 'JetBrains Mono', 'Menlo', monospace" text-anchor="middle">800</text><line x1="625.7" y1="424.0" x2="625.7" y2="429.0" stroke="#8b93a7"/><text x="625.7" y="442.0" fill="#8b93a7" font-size="11" font-family="'SF Mono', 'JetBrains Mono', 'Menlo', monospace" text-anchor="middle">900</text><line x1="720.0" y1="424.0" x2="720.0" y2="429.0" stroke="#8b93a7"/><text x="720.0" y="442.0" fill="#8b93a7" font-size="11" font-family="'SF Mono', 'JetBrains Mono', 'Menlo', monospace" text-anchor="middle">1000</text>
  <path d="M 60.00,343.93 L 64.15,340.04 L 68.30,336.18 L 72.45,332.35 L 76.60,328.55 L 80.75,324.80 L 84.91,321.11 L 89.06,317.48 L 93.21,313.91 L 97.36,310.42 L 101.51,307.01 L 105.66,303.69 L 109.81,300.45 L 113.96,297.30 L 118.11,294.25 L 122.26,291.30 L 126.42,288.45 L 130.57,285.71 L 134.72,283.06 L 138.87,280.53 L 143.02,278.10 L 147.17,275.78 L 151.32,273.57 L 155.47,271.47 L 159.62,269.47 L 163.77,267.58 L 167.92,265.80 L 172.08,264.13 L 176.23,262.55 L 180.38,261.08 L 184.53,259.72 L 188.68,258.45 L 192.83,257.28 L 196.98,256.20 L 201.13,255.22 L 205.28,254.34 L 209.43,253.54 L 213.58,252.83 L 217.74,252.20 L 221.89,251.66 L 226.04,251.20 L 230.19,250.82 L 234.34,250.51 L 238.49,250.28 L 242.64,250.12 L 246.79,250.03 L 250.94,250.00 L 255.09,250.04 L 259.25,250.14 L 263.40,250.30 L 267.55,250.52 L 271.70,250.79 L 275.85,251.12 L 280.00,251.49 L 284.15,251.92 L 288.30,252.39 L 292.45,252.91 L 296.60,253.47 L 300.75,254.07 L 304.91,254.71 L 309.06,255.39 L 313.21,256.10 L 317.36,256.84 L 321.51,257.62 L 325.66,258.43 L 329.81,259.26 L 333.96,260.12 L 338.11,261.01 L 342.26,261.92 L 346.42,262.86 L 350.57,263.81 L 354.72,264.79 L 358.87,265.78 L 363.02,266.79 L 367.17,267.82 L 371.32,268.86 L 375.47,269.91 L 379.62,270.98 L 383.77,272.06 L 387.92,273.15 L 392.08,274.25 L 396.23,275.36 L 400.38,276.47 L 404.53,277.60 L 408.68,278.73 L 412.83,279.86 L 416.98,281.00 L 421.13,282.15 L 425.28,283.29 L 429.43,284.44 L 433.58,285.60 L 437.74,286.75 L 441.89,287.90 L 446.04,289.06 L 450.19,290.21 L 454.34,291.37 L 458.49,292.52 L 462.64,293.67 L 466.79,294.82 L 470.94,295.96 L 475.09,297.11 L 479.25,298.25 L 483.40,299.38 L 487.55,300.51 L 491.70,301.64 L 495.85,302.76 L 500.00,303.88 L 504.15,305.00 L 508.30,306.10 L 512.45,307.21 L 516.60,308.30 L 520.75,309.39 L 524.91,310.48 L 529.06,311.55 L 533.21,312.63 L 537.36,313.69 L 541.51,314.75 L 545.66,315.80 L 549.81,316.84 L 553.96,317.88 L 558.11,318.90 L 562.26,319.93 L 566.42,320.94 L 570.57,321.94 L 574.72,322.94 L 578.87,323.93 L 583.02,324.92 L 587.17,325.89 L 591.32,326.86 L 595.47,327.81 L 599.62,328.76 L 603.77,329.71 L 607.92,330.64 L 612.08,331.57 L 616.23,332.48 L 620.38,333.39 L 624.53,334.29 L 628.68,335.19 L 632.83,336.07 L 636.98,336.95 L 641.13,337.82 L 645.28,338.68 L 649.43,339.53 L 653.58,340.37 L 657.74,341.21 L 661.89,342.04 L 666.04,342.86 L 670.19,343.67 L 674.34,344.48 L 678.49,345.27 L 682.64,346.06 L 686.79,346.84 L 690.94,347.61 L 695.09,348.38 L 699.25,349.13 L 703.40,349.88 L 707.55,350.63 L 711.70,351.36 L 715.85,352.09 L 720.00,352.81 L 720.00,424.00 L 60.00,424.00 Z" fill="url(#spectrum)" opacity="0.78"/>
  <path d="M 60.00,343.93 L 64.15,340.04 L 68.30,336.18 L 72.45,332.35 L 76.60,328.55 L 80.75,324.80 L 84.91,321.11 L 89.06,317.48 L 93.21,313.91 L 97.36,310.42 L 101.51,307.01 L 105.66,303.69 L 109.81,300.45 L 113.96,297.30 L 118.11,294.25 L 122.26,291.30 L 126.42,288.45 L 130.57,285.71 L 134.72,283.06 L 138.87,280.53 L 143.02,278.10 L 147.17,275.78 L 151.32,273.57 L 155.47,271.47 L 159.62,269.47 L 163.77,267.58 L 167.92,265.80 L 172.08,264.13 L 176.23,262.55 L 180.38,261.08 L 184.53,259.72 L 188.68,258.45 L 192.83,257.28 L 196.98,256.20 L 201.13,255.22 L 205.28,254.34 L 209.43,253.54 L 213.58,252.83 L 217.74,252.20 L 221.89,251.66 L 226.04,251.20 L 230.19,250.82 L 234.34,250.51 L 238.49,250.28 L 242.64,250.12 L 246.79,250.03 L 250.94,250.00 L 255.09,250.04 L 259.25,250.14 L 263.40,250.30 L 267.55,250.52 L 271.70,250.79 L 275.85,251.12 L 280.00,251.49 L 284.15,251.92 L 288.30,252.39 L 292.45,252.91 L 296.60,253.47 L 300.75,254.07 L 304.91,254.71 L 309.06,255.39 L 313.21,256.10 L 317.36,256.84 L 321.51,257.62 L 325.66,258.43 L 329.81,259.26 L 333.96,260.12 L 338.11,261.01 L 342.26,261.92 L 346.42,262.86 L 350.57,263.81 L 354.72,264.79 L 358.87,265.78 L 363.02,266.79 L 367.17,267.82 L 371.32,268.86 L 375.47,269.91 L 379.62,270.98 L 383.77,272.06 L 387.92,273.15 L 392.08,274.25 L 396.23,275.36 L 400.38,276.47 L 404.53,277.60 L 408.68,278.73 L 412.83,279.86 L 416.98,281.00 L 421.13,282.15 L 425.28,283.29 L 429.43,284.44 L 433.58,285.60 L 437.74,286.75 L 441.89,287.90 L 446.04,289.06 L 450.19,290.21 L 454.34,291.37 L 458.49,292.52 L 462.64,293.67 L 466.79,294.82 L 470.94,295.96 L 475.09,297.11 L 479.25,298.25 L 483.40,299.38 L 487.55,300.51 L 491.70,301.64 L 495.85,302.76 L 500.00,303.88 L 504.15,305.00 L 508.30,306.10 L 512.45,307.21 L 516.60,308.30 L 520.75,309.39 L 524.91,310.48 L 529.06,311.55 L 533.21,312.63 L 537.36,313.69 L 541.51,314.75 L 545.66,315.80 L 549.81,316.84 L 553.96,317.88 L 558.11,318.90 L 562.26,319.93 L 566.42,320.94 L 570.57,321.94 L 574.72,322.94 L 578.87,323.93 L 583.02,324.92 L 587.17,325.89 L 591.32,326.86 L 595.47,327.81 L 599.62,328.76 L 603.77,329.71 L 607.92,330.64 L 612.08,331.57 L 616.23,332.48 L 620.38,333.39 L 624.53,334.29 L 628.68,335.19 L 632.83,336.07 L 636.98,336.95 L 641.13,337.82 L 645.28,338.68 L 649.43,339.53 L 653.58,340.37 L 657.74,341.21 L 661.89,342.04 L 666.04,342.86 L 670.19,343.67 L 674.34,344.48 L 678.49,345.27 L 682.64,346.06 L 686.79,346.84 L 690.94,347.61 L 695.09,348.38 L 699.25,349.13 L 703.40,349.88 L 707.55,350.63 L 711.70,351.36 L 715.85,352.09 L 720.00,352.81" fill="none" stroke="#e8ecf4" stroke-width="2" opacity="0.9"/>
  <line x1="250.5" y1="244.0" x2="250.5" y2="424.0" stroke="#e8ecf4" stroke-width="1" stroke-dasharray="3 3" opacity="0.7"/><text x="250.5" y="238.0" fill="#e8ecf4" font-size="11" font-family="'SF Mono', 'JetBrains Mono', 'Menlo', monospace" text-anchor="middle">λ_max 502 nm</text>
  <text x="390.0" y="468" fill="#8b93a7" font-size="12" text-anchor="middle">spectral radiance vs. wavelength (nm) — Planck's law</text>
</svg>
